<svg xmlns="http://www.w3.org/2000/svg" xmlns:xlink="http://www.w3.org/1999/xlink" version="1.1" x="0px" y="0px" viewBox="0 0 100 100" enable-background="new 0 0 100 100" xml:space="preserve"><g><path d="M99.7,41.7c-0.4-7.5-11.2-7.2-14.7-7.1c-0.3,0-0.6,0-0.8,0c-0.5,0-0.9-0.1-1.3-0.2c-0.9-0.4-1.6-1.2-2.1-2.1   c-9-17.9-28.5-17.9-30.9-17.8c-2.5-0.1-22.5-0.3-31.3,18.4c-0.4,0.5-0.6,0.6-1.2,0.9c-0.3,0.1-0.5,0.2-0.7,0.3   c-0.3,0.1-0.5,0.2-0.8,0.2c-0.3,0-0.8,0.1-1,0.1C11.3,34.2,0.5,34,0.1,41.5c-0.2,3.4,0.4,5.7,1.9,7.3c1.9,2,5.1,2.6,9.3,2.7   l0.8,11.3c0,4.9,5.1,6.3,7.9,6.3h30h29.9c2.7,0,7.8-1.4,7.9-6.3l0.3-3.9c0.1-0.3,0.2-0.7,0.2-1.1c0-0.2,0-0.3-0.1-0.4l0.4-5.9   c4.2-0.1,7.4-0.6,9.3-2.6C99.3,47.3,99.9,45.1,99.7,41.7z M85.1,63c0,3.6-5.1,4-5.3,4H20c-0.1,0-5.3-0.3-5.3-3.9l-0.1-1.3   c2,1,4.7,1.2,6.5,1.2c1.6,0,1.6-2.5,0-2.6c-1.9,0-4.6-0.1-6.1-1.5c-0.2-0.2-0.5-0.7-0.6-0.8c0,0,0-0.1,0-0.1l-0.6-7.6   c2.4-1.6,7.7-4.1,12.8,0.5c8.7,7.7,16.1,0.1,16.2,0c0,0,2.8-2.9,6.4-2.9c0,0,0,0,0.1,0c2,0,4,1.1,5.8,3.1c2.3,2.6,4.9,3.9,7.7,3.9   c0,0,0,0,0.1,0c4.7,0,8.2-3.9,8.4-4c0.2-0.3,5.7-6.5,14.8-0.1l-0.5,7.4c-0.1,0.2-0.3,0.4-0.4,0.6c-1.5,1.5-4.2,1.5-6.1,1.5   c-1.6,0-1.6,2.6,0,2.5c1.7,0,4.3-0.3,6.3-1.2l-0.1,1.1L85.1,63z M95.9,47.1c-1.2,1.2-3.5,1.8-8,1.9c-11.3-8.4-18.7,0-18.7,0   c0,0-2.9,3-6.4,3c0,0,0,0-0.1,0c-2,0-4-1.1-5.8-3.1c-2.3-2.6-4.9-3.9-7.7-3.9c0,0-0.1,0-0.1,0c-4.7,0-8.1,3.7-8.3,3.9   c-0.2,0.2-5.8,6-12.5,0c-6.5-5.8-13.7-2.7-17.1,0.1c-4.1-0.1-6.2-0.7-7.3-1.9c-0.9-1-1.3-2.7-1.2-5.3c0.2-3.9,5.5-4.6,10.2-4.6   c0.6,0,1.2-0.1,1.8-0.1c0.4,0,0.7-0.1,0.9-0.1c0,0,0,0,0,0c3.1,0,5-2.4,5.1-2.5l0.1-0.2C29,16.9,47.8,17,49.9,17l0,0l0,0   c2.1-0.1,20.5-0.9,28.6,16.6l0.5,0.9c0.1,0.1,2,2.5,5.1,2.5c0,0,0.4,0,0,0c-0.2,0,0.6,0,1,0c5.1-0.2,11.7,0.3,11.9,4.7   C97.2,44.4,96.9,46.1,95.9,47.1z"></path><path d="M40.5,21.4c-0.3,0-0.5,0.2-0.7,0.4c-3.8,2.5-15.1,10.8-8.3,15C38.3,41,41.3,27.2,42,23c0-0.3,0-0.5-0.1-0.7   C41.8,21.7,41.2,21.2,40.5,21.4z M33.1,34.8c-3.4-1.3,2.2-6.4,5.8-9.2C38,29.8,36,35.9,33.1,34.8z"></path><path d="M61.7,21.8c-0.2-0.2-0.4-0.3-0.7-0.4c-0.7-0.2-1.3,0.3-1.5,0.9c-0.1,0.2-0.1,0.4-0.1,0.7c0.7,4.1,3.7,18,10.5,13.8   C76.8,32.6,65.5,24.4,61.7,21.8z M68.3,34.8c-2.9,1.1-4.8-5-5.8-9.2C66.2,28.5,71.8,33.5,68.3,34.8z"></path><path d="M51.5,23.3c-0.5-0.4-1.3-0.6-1.7,0.1c-0.2,0.2-0.4,0.4-0.4,0.7c-1.9,4.2-7,16.7,0.6,17.1c8.3,0.4,3.5-13.4,1.9-17.2   C51.9,23.6,51.7,23.5,51.5,23.3z M50.6,38.6c-3.5,0.6-1.5-6.6,0.1-10.9C52.2,31.8,53.8,38.1,50.6,38.6z"></path></g></svg>