<svg xmlns="http://www.w3.org/2000/svg" xmlns:xlink="http://www.w3.org/1999/xlink" version="1.1" x="0px" y="0px" viewBox="0 0 100 125" style="enable-background:new 0 0 100 100;" xml:space="preserve"><g><path d="M96.725,32.035c0.107-1.1-0.697-2.078-1.797-2.185c-1.598-0.155-3.303-1.013-5.107-1.92   c-1.453-0.73-3.019-1.514-4.697-1.987c-1.168-2.601-3.137-4.811-5.831-6.371c-4.2-2.432-10.271-3.076-15.672,0.098   c-0.036-0.059-0.072-0.114-0.108-0.166c-1.482-2.153-4.788-2.708-7.408-2.301c-3.806,0.589-8.445,3.042-11.231,6.442   c-3.566-1.996-10.833-0.23-11.927,0.257c-4.844,2.159-9.148,6.935-10.146,12.293c-0.722-0.399-1.499-0.701-2.313-0.89   c-2.729-0.63-5.52,0.097-7.655,1.998c-2.25,2.003-5.508,7.721-5.716,12.53c-0.617-0.176-1.238-0.341-1.869-0.483   c-0.645-0.144-1.32,0.04-1.803,0.49c-0.483,0.451-0.712,1.112-0.611,1.765c0.173,1.128,0.601,1.959,0.979,2.693   c0.135,0.261,0.273,0.527,0.398,0.817c1.006,2.348,1.588,4.798,1.887,7.943c0.501,5.282,0.213,9.739-0.88,13.625   c-0.131,0.467-0.085,0.94,0.097,1.352c-0.054,0.122-0.097,0.252-0.126,0.388c-0.234,1.079,0.452,2.144,1.531,2.378   c3.195,0.691,6.058,1.411,8.75,2.199c0.471,0.146,2.169,1.133,3.294,1.787c2.979,1.732,4.303,2.468,5.366,2.468   c0.214,0,0.418-0.03,0.623-0.088c0.094-0.027,0.179-0.073,0.267-0.112c0.214-0.007,0.43-0.043,0.639-0.123   c2.221-0.837,4.453-1.638,6.685-2.438c4.685-1.681,9.53-3.42,14.208-5.481c6.023-2.654,12.008-5.601,17.795-8.449   c5.655-2.784,11.503-5.662,17.348-8.248c0.35-0.155,0.766-0.309,1.209-0.474c1.885-0.702,4.231-1.576,5.408-3.46   c0.792-1.265,0.909-3.009,1.013-4.547c0.041-0.62,0.084-1.261,0.165-1.632c1.169-5.366,3.47-10.64,5.694-15.74   c0.469-1.074,0.936-2.145,1.392-3.213c0.149-0.351,0.181-0.725,0.125-1.086C96.707,32.122,96.721,32.08,96.725,32.035z    M88.024,31.504c0.541,0.272,1.088,0.546,1.642,0.807c-1.099,0.369-2.234,0.712-3.385,1.055c0.088-0.919,0.094-1.821,0.027-2.701   C86.872,30.927,87.443,31.212,88.024,31.504z M15.492,40.292c1.171-1.042,2.626-1.429,4.094-1.088   c1.619,0.375,2.983,1.568,3.648,3.192c0.408,0.997,1.533,1.492,2.543,1.119c1.011-0.374,1.544-1.48,1.207-2.503   c-1.733-5.254,2.525-11.199,7.59-13.455c2.354-1.049,7.345-0.977,8.297-0.459c-0.008,0.037-0.021,0.083-0.039,0.139   c-0.344,1.049,0.227,2.177,1.274,2.522c1.049,0.345,2.178-0.224,2.524-1.271c1.187-3.584,6.268-6.741,10.085-7.332   c1.608-0.248,3.211,0.195,3.502,0.617c0.033,0.048,0.023,0.358-0.303,0.93c-0.494,0.867-0.274,1.966,0.517,2.575   c0.792,0.61,1.911,0.542,2.622-0.158c4.57-4.487,10.443-4.282,14.233-2.087c1.342,0.777,2.431,1.763,3.252,2.908   c-0.502,0.391-0.81,1.014-0.769,1.698c0.065,1.102,1.002,1.945,2.116,1.876c0.076-0.005,0.152,0.003,0.228,0.002   c0.345,1.584,0.321,3.317-0.089,5.133c-1.423,0.447-2.846,0.926-4.231,1.481c-5.005,2.005-9.63,4.342-14.141,7.144   c-3.621,2.25-7.396,3.989-11.392,5.83c-1.755,0.809-3.57,1.645-5.354,2.521c-5.32,2.615-10.35,5.842-15.242,9.019   c-2.477-2.176-6.29-3.587-9.7-4.835c-1.496-0.547-2.909-1.063-4.014-1.577l-0.68-0.316c-1.974-0.92-3.985-1.853-6.061-2.675   C10.804,48.69,12.485,42.969,15.492,40.292z M22.983,82.591c-0.735-0.402-1.585-0.896-2.209-1.26   c-2.028-1.179-3.314-1.914-4.18-2.168c-2.315-0.677-4.745-1.305-7.387-1.906c1.115-4.242,1.4-9.017,0.873-14.574   c-0.305-3.211-0.881-5.812-1.848-8.296c0.004,0.002,0.009,0.003,0.013,0.005c0.092,0.133,0.166,0.277,0.271,0.402   c0.381,0.456,0.944,0.717,1.534,0.717c0.042,0,0.084-0.001,0.127-0.004l0.773-0.048c1.533,0.647,3.067,1.354,4.636,2.085   l0.683,0.317c1.258,0.585,2.748,1.13,4.326,1.707c3.288,1.202,7.014,2.565,8.806,4.406c0.709,0.729,0.403,1.719-0.816,4.141   c-0.268,0.532-0.528,1.053-0.742,1.55C25.922,74.125,24.325,78.605,22.983,82.591z M85.58,51.354   c-0.144,0.659-0.194,1.414-0.248,2.214c-0.058,0.853-0.153,2.28-0.413,2.694c-0.456,0.731-2.235,1.394-3.413,1.833   c-0.526,0.195-1.018,0.381-1.432,0.563c-5.919,2.619-11.804,5.516-17.495,8.317c-5.75,2.83-11.696,5.757-17.642,8.378   c-4.549,2.005-9.326,3.72-13.946,5.377c-1.197,0.429-2.393,0.862-3.589,1.297c1.178-3.418,2.536-7.114,4.114-10.78   c0.185-0.428,0.411-0.876,0.642-1.335c0.712-1.416,1.642-3.274,1.62-5.166c0.199-0.159,0.373-0.358,0.504-0.595   c0.102-0.184,0.171-0.375,0.211-0.57c4.575-2.968,9.293-5.961,14.182-8.364c1.738-0.854,3.53-1.68,5.263-2.479   c3.932-1.811,7.996-3.684,11.829-6.065c4.31-2.678,8.731-4.911,13.518-6.829c2.236-0.896,4.67-1.616,7.023-2.312   c1.546-0.457,3.118-0.922,4.676-1.446C88.854,40.984,86.736,46.043,85.58,51.354z"/></g></svg>