<svg xmlns="http://www.w3.org/2000/svg" data-name="Layer 1" viewBox="0 0 100 125" x="0px" y="0px"><defs><style>.cls-1{fill:none;stroke:#000;stroke-linecap:round;stroke-linejoin:round;}</style></defs><title>sweets</title><path class="cls-1" d="M85,35.7V58.43a3,3,0,0,1-1.56,2.63l-31.9,17.4a3,3,0,0,1-2.87,0l-31.9-17.4a3,3,0,0,1-1.56-2.63V35.7a3,3,0,0,1,2-2.82L49,21.14a3,3,0,0,1,2.07,0L83,32.88A3,3,0,0,1,85,35.7Z"/><path class="cls-1" d="M84.34,33.88l-33.05,15a3,3,0,0,1-2.48,0l-33.05-15"/><path class="cls-1" d="M15.14,38.47v16.8L48.64,73.11a3,3,0,0,0,2.82,0L85,55.27V38.47L51.28,54.31a3,3,0,0,1-2.56,0Z"/></svg>