<svg xmlns:dc="http://purl.org/dc/elements/1.1/" xmlns:cc="http://creativecommons.org/ns#" xmlns:rdf="http://www.w3.org/1999/02/22-rdf-syntax-ns#" xmlns:svg="http://www.w3.org/2000/svg" xmlns="http://www.w3.org/2000/svg" xmlns:sodipodi="http://sodipodi.sourceforge.net/DTD/sodipodi-0.dtd" xmlns:inkscape="http://www.inkscape.org/namespaces/inkscape" version="1.1" x="0px" y="0px" viewBox="0 0 100 125"><g transform="translate(0,-952.36218)"><path d="m 44.171882,963.19354 c 2.921598,0.033 5.791606,0.32595 8.531256,0.84376 0.764362,0.20527 1.027736,0.31816 1.53124,0.74998 l 39.312497,35.96872 c 0.518491,0.4658 0.655191,0.9598 0.65625,1.5939 l 0,37.0937 c -0.13156,1.9222 -1.380539,2.3375 -3.00001,1.9688 l -83.5312285,-24.375 c -1.405843,-0.5 -1.843867,-1.0852 -1.875012,-2.4375 l 0,-36.65635 c 0.0434,-0.96049 0.307878,-1.45347 0.937523,-2.03124 10.0553035,-8.24265 24.3405355,-12.86678 37.4374835,-12.71877 z m -0.03125,4.03125 c -10.877811,-0.066 -22.947023,3.44357 -31.937492,9.59376 l 72.281226,21.06247 -32.78122,-29.96872 c -2.409485,-0.43774 -4.950568,-0.67167 -7.562516,-0.68751 z m -34.3437515,13.06251 0,9.53125 80.4062455,23.34385 0,-9.4376 -80.4062455,-23.4375 z m 0,23.1876 0,10.0312 80.4062455,23.4375 0,-10.0312 -80.4062455,-23.4375 z" style="text-indent:0;text-transform:none;direction:ltr;block-progression:tb;baseline-shift:baseline;color:#000000;enable-background:accumulate;" fill="#000000" fill-opacity="1" fill-rule="evenodd" stroke="none" marker="none" visibility="visible" display="inline" overflow="visible"/></g></svg>