<svg xmlns="http://www.w3.org/2000/svg" xmlns:xlink="http://www.w3.org/1999/xlink" viewBox="0 0 180 225" version="1.1" x="0px" y="0px"><title>Fika Copy 7</title><desc>Created with Sketch.</desc><g stroke="none" stroke-width="1" fill="none" fill-rule="evenodd"><g fill="#000000"><g transform="translate(20.000000, 53.000000)"><path d="M118.323793,13.2331939 L118.368745,13.0964971 C130.610423,17.5482491 138.041667,23.6478406 138.041667,30.9661017 C138.041667,45.6718304 107.551646,56.0338983 70,56.0338983 C32.4483543,56.0338983 1.95833333,45.6718304 1.95833333,30.9661017 C1.95833333,23.3303863 9.82503468,17.0133789 23.0544581,12.5242783 C26.2886977,10.336811 30.2734921,8.49345276 34.5,7.37288136 C34.5,7.37288136 32.6268866,15.2120161 31.3898359,15.6758783 C28.7984113,16.6475958 26.4759403,17.8324008 24.6476522,19.1129356 C22.3435166,20.7267545 21.1875,22.251188 21.1875,23.0263548 C21.1875,29.6768146 43.2458134,36.7113254 70.3892544,36.7113254 C97.5326954,36.7113254 119.591009,29.6768146 119.591009,23.0263548 C119.591009,20.0272601 115.240337,17.3576667 104.024036,14.4466708 L105.514696,8.73863202 C110.920637,10.14165 115.163788,11.582781 118.323793,13.2331939 Z M15.3110204,22.3364391 C10.449083,25.1475766 7.875,28.1774924 7.875,30.9661017 C7.875,40.6919526 35.6625807,50.1355932 70,50.1355932 C104.337419,50.1355932 132.125,40.6919526 132.125,30.9661017 C132.125,28.348965 129.851529,25.5043919 125.505876,22.8242838 C125.507076,22.8913466 125.507675,22.9587027 125.507675,23.0263548 C125.507675,34.7494401 100.860255,42.6096305 70.3892544,42.6096305 C39.9182534,42.6096305 15.2708333,34.7494401 15.2708333,23.0263548 C15.2708333,22.7981267 15.2843765,22.568045 15.3110204,22.3364391 Z M52.25,7.37288136 C51.6065087,7.63889785 49.5940273,7.89060689 50.3300102,8.93685639 C51.0659932,9.9831059 53.4317828,11.3361608 56.6617677,12.2856801 C65.2140521,14.7997971 75.2882761,13.7632644 81.7370698,8.73613282 C83.024126,7.73281327 84.8833744,7.95958931 85.8898173,9.24265129 C86.8962602,10.5257133 86.6687782,12.3791917 85.381722,13.3825112 C77.2574838,19.715729 65.2283265,20.9534039 54.9882741,17.9431334 C50.4063398,16.5961811 46.8448106,14.5203549 45.2492028,11.9669977 C42.9085875,8.22144876 44.9229703,4.52885488 49.7288286,2.54213407 C51.2380517,1.91822781 52.9688693,2.6321221 53.5947178,4.13666161 C54.2205663,5.64120111 53.7592232,6.74897509 52.25,7.37288136 Z M70,5.89830508 C60.347744,5.89830508 51.3305943,7.11497602 44.7534087,9.21314376 C38.9858335,11.0530402 35.9791667,13.3207197 35.9791667,14.7457627 C35.9791667,16.1708058 38.9858335,18.4384853 44.7534087,20.2783817 C51.3305943,22.3765494 60.347744,23.5932203 70,23.5932203 C79.652256,23.5932203 88.6694057,22.3765494 95.2465913,20.2783817 C101.014166,18.4384853 104.020833,16.1708058 104.020833,14.7457627 C104.020833,13.3207197 101.014166,11.0530402 95.2465913,9.21314376 C88.6694057,7.11497602 79.652256,5.89830508 70,5.89830508 Z M69.2604167,0 C91.7559314,0 109.9375,5.80004627 109.9375,15.0188324 C109.9375,24.2376185 91.7559314,30.0376648 69.2604167,30.0376648 C46.764902,30.0376648 28.5833333,24.2376185 28.5833333,15.0188324 C28.5833333,5.80004627 46.764902,0 69.2604167,0 Z" fill-rule="nonzero"/><g transform="translate(13.791667, 4.423729)"><ellipse cx="61.3181818" cy="30.6258149" rx="2.27104377" ry="2.26857888"/><ellipse cx="61.3181818" cy="15.8800522" rx="2.27104377" ry="2.26857888"/><ellipse cx="106.739057" cy="30.6258149" rx="2.27104377" ry="2.26857888"/><ellipse cx="95.3838384" cy="30.6258149" rx="2.27104377" ry="2.26857888"/><ellipse cx="84.0286195" cy="36.2972621" rx="2.27104377" ry="2.26857888"/><ellipse cx="84.0286195" cy="22.6857888" rx="2.27104377" ry="2.26857888"/><ellipse cx="95.3838384" cy="14.7457627" rx="2.27104377" ry="2.26857888"/><ellipse cx="110.145623" cy="26.0886571" rx="2.27104377" ry="2.26857888"/><ellipse cx="105.603535" cy="19.2829205" rx="2.27104377" ry="2.26857888"/><ellipse cx="94.2483165" cy="21.5514993" rx="2.27104377" ry="2.26857888"/><ellipse cx="86.2996633" cy="17.0143416" rx="2.27104377" ry="2.26857888"/><ellipse cx="95.3838384" cy="38.5658409" rx="2.27104377" ry="2.26857888"/><ellipse cx="68.1313131" cy="38.5658409" rx="2.27104377" ry="2.26857888"/><ellipse cx="72.6734007" cy="24.9543677" rx="2.27104377" ry="2.26857888"/><ellipse cx="74.9444444" cy="6.80573664" rx="2.27104377" ry="2.26857888"/><ellipse cx="80.6220539" cy="11.3428944" rx="2.27104377" ry="2.26857888"/><ellipse cx="70.4023569" cy="12.4771838" rx="2.27104377" ry="2.26857888"/><ellipse cx="36.3367003" cy="12.4771838" rx="2.27104377" ry="2.26857888"/><ellipse cx="24.9814815" cy="14.7457627" rx="2.27104377" ry="2.26857888"/><ellipse cx="59.047138" cy="2.26857888" rx="2.27104377" ry="2.26857888"/><ellipse cx="47.6919192" cy="4.53715776" rx="2.27104377" ry="2.26857888"/><ellipse cx="47.6919192" cy="15.8800522" rx="2.27104377" ry="2.26857888"/><ellipse cx="23.8459596" cy="6.80573664" rx="2.27104377" ry="2.26857888"/><ellipse cx="53.3695286" cy="24.9543677" rx="2.27104377" ry="2.26857888"/><ellipse cx="42.0143098" cy="27.2229465" rx="2.27104377" ry="2.26857888"/><ellipse cx="9.08417508" cy="17.0143416" rx="2.27104377" ry="2.26857888"/><ellipse cx="19.3038721" cy="21.5514993" rx="2.27104377" ry="2.26857888"/><ellipse cx="29.523569" cy="22.6857888" rx="2.27104377" ry="2.26857888"/><ellipse cx="6.81313131" cy="34.0286832" rx="2.27104377" ry="2.26857888"/><ellipse cx="13.6262626" cy="35.1629726" rx="2.27104377" ry="2.26857888"/><ellipse cx="23.8459596" cy="36.2972621" rx="2.27104377" ry="2.26857888"/><ellipse cx="2.27104377" cy="27.2229465" rx="2.27104377" ry="2.26857888"/><ellipse cx="30.6590909" cy="29.4915254" rx="2.27104377" ry="2.26857888"/><ellipse cx="19.3038721" cy="31.7601043" rx="2.27104377" ry="2.26857888"/><ellipse cx="43.1498316" cy="39.7001304" rx="2.27104377" ry="2.26857888"/><ellipse cx="31.7946128" cy="41.9687093" rx="2.27104377" ry="2.26857888"/><ellipse cx="76.0799663" cy="41.9687093" rx="2.27104377" ry="2.26857888"/><ellipse cx="52.2340067" cy="41.9687093" rx="2.27104377" ry="2.26857888"/></g><path d="M70.0014779,86.9998455 C125.956255,86.9402844 146.267566,69.6598583 137.893752,29.4915254 L132.125,30.6916746 C139.634741,66.7151409 122.549824,81.0750545 69.8576086,81.1016579 C17.1634899,81.0745031 0.304708616,66.1157418 7.81459084,30.0916 L2.02169823,28.8914509 C-6.35211528,69.0597833 13.7567063,86.9382134 69.7107827,86.9998401 C69.7596697,87 69.8085297,86.9999869 69.8573625,86.9999608 C69.9053798,86.9999869 69.9534157,87 70.0014779,87 Z" fill-rule="nonzero"/></g></g></g></svg>