<svg xmlns="http://www.w3.org/2000/svg" xmlns:xlink="http://www.w3.org/1999/xlink" version="1.1" x="0px" y="0px" viewBox="0 0 100 125" enable-background="new 0 0 100 100" xml:space="preserve"><path d="M79.072,49.969c-0.254-0.197-0.522-0.379-0.798-0.551c0.319-2.387,0.002-4.741-0.972-6.894  c-1.53-3.389-4.496-5.834-8.349-6.89c-1.229-0.336-2.467-0.507-3.681-0.507c-1.212,0-2.369,0.169-3.46,0.478  c0.001,0.002,0.002,0.004,0.003,0.006c-2.651-5.676-7.891-6.733-11.412-6.733c-3.521,0-8.761,1.057-11.412,6.733  c0.001-0.002,0.002-0.004,0.003-0.006c-1.091-0.308-2.248-0.478-3.46-0.478c-1.213,0-2.451,0.171-3.68,0.507  c-3.854,1.055-6.819,3.501-8.35,6.89c-0.973,2.153-1.292,4.508-0.971,6.896l0-0.001c-0.276,0.172-0.543,0.354-0.797,0.551  c-4.473,3.468-6.594,11.895-5.368,16.562c0.729,2.774,2.744,4.303,5.673,4.303c2.076,0,4.497-0.775,7.002-2.241l4.311-2.522  c1.911,1.236,3.859,1.938,5.647,1.938c0.576,0,1.132-0.074,1.656-0.216c1.149-0.313,2.207-0.995,3.15-1.947  c1.934,2.474,4.186,4.015,6.595,4.015c2.412,0,4.664-1.543,6.599-4.019c0,0-0.002,0.002-0.004,0.004  c0.944,0.952,2.001,1.634,3.149,1.947c0.523,0.142,1.082,0.216,1.656,0.216c0.001,0,0.001,0,0.001,0  c1.789,0,3.735-0.702,5.646-1.938l4.311,2.522c2.505,1.466,4.926,2.241,7.002,2.241h0.001c2.93,0,4.944-1.528,5.673-4.303  C85.665,61.864,83.544,53.436,79.072,49.969z M27.955,66.729c-2.144,1.255-4.243,1.944-5.912,1.944  c-1.936,0-3.107-0.881-3.584-2.692c-1.03-3.922,0.918-11.417,4.575-14.282c0,0,0-0.002,0-0.004c0.242,0.798,0.552,1.592,0.937,2.379  l1.044,2.136c1.671,3.417,3.977,6.365,6.459,8.458L27.955,66.729z M40.09,65.71c-0.338,0.092-0.704,0.14-1.086,0.14  c-3.915,0-9.095-4.553-12.049-10.588l-1.044-2.137c-1.617-3.305-1.772-6.755-0.436-9.712c1.261-2.792,3.73-4.814,6.952-5.696  c1.043-0.286,2.089-0.43,3.109-0.43c0.94,0,1.837,0.13,2.69,0.358c0,0,0-0.001,0-0.001c-0.565,1.87-0.898,4.122-0.898,6.843  c0,6.811,2.048,14.458,5.225,19.56C41.809,64.879,40.981,65.466,40.09,65.71z M50.405,67.698c-5.776,0-10.916-12.979-10.916-23.211  c0-8.798,3.774-13.449,10.916-13.449s10.917,4.651,10.917,13.449C61.321,54.719,56.182,67.698,50.405,67.698z M61.807,65.85  c-0.384,0-0.749-0.048-1.087-0.14c-0.891-0.244-1.718-0.831-2.462-1.663c3.175-5.102,5.225-12.75,5.225-19.56  c0-2.722-0.334-4.973-0.899-6.843c0,0,0.001,0.001,0.001,0.001c0.853-0.228,1.75-0.358,2.689-0.358c1.021,0,2.067,0.144,3.109,0.43  c3.222,0.881,5.691,2.904,6.952,5.696c1.337,2.958,1.182,6.407-0.437,9.712l-1.044,2.136C70.901,61.297,65.721,65.85,61.807,65.85z   M82.351,65.981c-0.476,1.812-1.648,2.692-3.584,2.692l0,0c-1.669,0-3.769-0.689-5.912-1.944l-3.518-2.062  c-0.001,0.002-0.002,0.002-0.002,0.002c2.482-2.095,4.788-5.043,6.461-8.46l1.043-2.136c0.385-0.787,0.695-1.58,0.937-2.377  c-0.001,0.002-0.001,0.002-0.001,0.002C81.433,54.564,83.381,62.06,82.351,65.981z"/></svg>