<svg xmlns:xlink="http://www.w3.org/1999/xlink" xmlns="http://www.w3.org/2000/svg" stroke-width="0.501" stroke-linejoin="bevel" fill-rule="evenodd" version="1.1" overflow="visible" viewBox="0 0 75 93.75" x="0px" y="0px"><g fill="none" stroke="black" font-family="Times New Roman" font-size="16" transform="scale(1 -1)"><g transform="translate(0 -75)"><g><path d="M 19.509,14.42 L 17.266,17.597 L 16.702,17.544 C -1.713,23.217 1.61,45.304 10.304,57.244 C 19.527,69.868 37.405,74.296 51.685,68.477 C 77.68,57.389 77.262,18.048 52.256,6.166 C 39.787,0.34 27.018,5.254 19.509,14.42 Z M 51.403,7.977 C 74.951,19.167 75.199,56.27 50.914,66.628 C 37.444,72.117 20.566,67.895 11.923,56.063 C 3.798,44.906 1.516,26.843 14.49,20.554 L 15.973,19.974 L 14.951,21.99 C 11.552,30.155 11.894,39.798 18.322,48.184 C 38.768,74.611 79.158,41.092 50.746,19.959 C 36.635,9.273 15.232,22.836 27.364,39.747 C 31.055,44.905 42.355,52.551 48.203,43.063 C 50.78,38.868 48.471,33.621 45.298,30.895 C 41.992,28.055 37.024,27.431 34.601,33.311 C 34.39,33.822 34.634,34.408 35.145,34.618 C 35.656,34.829 36.242,34.585 36.452,34.074 C 38.168,29.911 41.318,30.117 43.993,32.414 C 46.8,34.826 48.334,39.023 46.498,42.014 C 42.104,49.14 32.622,43.652 28.993,38.58 C 18.313,23.694 36.961,12.032 49.543,21.562 C 62.616,31.285 59.87,43.507 51.547,50.469 C 43.145,57.497 29.229,59.008 19.909,46.961 C 4.106,26.346 28.282,-2.824 51.403,7.977 Z M 36.733,8.075 C 35.5,9.079 37.008,10.93 38.242,9.926 C 39.477,8.92 37.967,7.068 36.733,8.075 Z M 51.565,12.42 C 50.329,13.425 51.837,15.276 53.073,14.271 C 53.997,13.517 52.49,11.665 51.565,12.42 Z M 20.904,24.559 L 21.156,24.867 C 22.16,26.101 24.011,24.594 23.007,23.36 L 22.755,23.051 C 22,22.125 20.149,23.633 20.904,24.559 Z M 43.083,23.433 C 41.848,24.439 43.357,26.29 44.591,25.285 C 45.825,24.279 44.317,22.428 43.083,23.433 Z M 29.61,25.166 C 28.376,26.173 29.884,28.024 31.119,27.017 C 32.044,26.265 30.537,24.413 29.61,25.166 Z M 51.913,31.125 C 50.681,32.13 52.187,33.982 53.421,32.977 C 54.348,32.223 52.84,30.372 51.913,31.125 Z M 63.169,31.711 C 61.934,32.717 63.442,34.568 64.677,33.563 C 65.911,32.557 64.403,30.706 63.169,31.711 Z M 8.115,33.435 C 9.121,34.669 10.971,33.161 9.966,31.925 C 8.962,30.692 7.11,32.2 8.115,33.435 Z M 52.484,39.387 C 51.249,40.393 52.758,42.244 53.991,41.239 C 54.918,40.485 53.408,38.634 52.484,39.387 Z M 39.069,40.56 C 37.833,41.567 39.341,43.418 40.576,42.411 C 41.81,41.407 40.302,39.556 39.069,40.56 Z M 22.682,43.128 C 23.686,44.362 25.537,42.854 24.533,41.62 C 23.527,40.385 21.675,41.894 22.682,43.128 Z M 11.837,46.827 C 10.603,47.832 12.11,49.685 13.344,48.678 C 14.579,47.674 13.072,45.822 11.837,46.827 Z M 32.61,48.386 C 31.375,49.391 32.884,51.243 34.118,50.237 C 35.352,49.232 33.844,47.382 32.61,48.386 Z M 58.193,52.7 C 56.958,53.705 58.468,55.557 59.702,54.553 C 60.627,53.798 59.119,51.947 58.193,52.7 Z M 22.781,61.525 C 23.785,62.759 25.637,61.252 24.633,60.016 C 23.626,58.783 21.774,60.29 22.781,61.525 Z M 41.04,59.999 C 39.806,61.003 41.314,62.854 42.549,61.85 C 43.783,60.843 42.275,58.992 41.04,59.999 Z" fill="#000000" stroke="none" stroke-width="2.003" fill-rule="nonzero" marker-start="none" marker-end="none" stroke-miterlimit="79.8403193612775"/></g></g></g></svg>