<svg xmlns="http://www.w3.org/2000/svg" xmlns:xlink="http://www.w3.org/1999/xlink" version="1.1" x="0px" y="0px" viewBox="0 0 100 125" enable-background="new 0 0 100 100" xml:space="preserve"><g><path d="M50,21.204c-15.879,0-28.797,12.918-28.797,28.797c0,1.183,0.081,2.347,0.22,3.494c-0.012,0.018-0.026,0.029-0.038,0.047   l0.048,0.035C23.201,67.771,35.333,78.797,50,78.797c15.878,0,28.796-12.918,28.796-28.796C78.797,34.122,65.879,21.204,50,21.204z    M50,76.969c-13.473,0-24.67-9.932-26.655-22.857c0.547-0.451,1.224-0.623,2.152-0.559c0.83,0.057,1.136,0.359,1.747,0.963   c0.136,0.135,0.277,0.275,0.431,0.418c0.871,0.813,2.262,1.52,3.542,1.801c0.873,0.191,1.646,0.289,2.385,0.289   c1.003,0,1.943-0.18,2.981-0.547c1.38-0.486,2.402-1.166,3.176-2.139c1.693,3.984,5.646,6.785,10.241,6.785   c4.892,0,9.048-3.18,10.533-7.578c0.756,0.432,1.648,0.646,2.682,0.629c1.539-0.018,2.303-0.68,3.041-1.322   c0.133-0.115,0.27-0.234,0.42-0.357c0.674-0.549,1.828-1.041,2.809-1.197c1.764-0.277,2.961-0.158,4.424,0.443   c1.359,0.559,2.184,1.285,2.734,2.438C74.629,67.07,63.449,76.969,50,76.969z M59.033,52.146c-0.973,4.092-4.648,7.148-9.033,7.148   c-5.125,0-9.294-4.17-9.294-9.294c0-5.126,4.169-9.296,9.294-9.296c5.125,0,9.294,4.17,9.294,9.296c0,0.725-0.092,1.427-0.25,2.103   l-0.029,0.02C59.021,52.133,59.029,52.139,59.033,52.146z M74.627,50.054c-1.797-0.739-3.322-0.897-5.438-0.562   c-1.318,0.208-2.77,0.835-3.703,1.595c-0.164,0.135-0.316,0.268-0.461,0.395c-0.656,0.568-0.984,0.854-1.832,0.863   c-1.004,0.02-1.674-0.215-2.201-0.729c0.076-0.529,0.131-1.067,0.131-1.617c0-6.134-4.99-11.124-11.123-11.124   c-6.133,0-11.123,4.99-11.123,11.124c0,0.659,0.068,1.3,0.179,1.929c-0.62,1.453-1.51,2.268-3.083,2.822   c-1.469,0.52-2.651,0.574-4.365,0.197c-0.952-0.211-2.058-0.766-2.687-1.354c-0.14-0.131-0.268-0.258-0.392-0.379   c-0.688-0.682-1.4-1.387-2.908-1.488c-0.953-0.066-1.781,0.064-2.5,0.387c-0.054-0.699-0.09-1.403-0.09-2.115   c0-14.871,12.098-26.969,26.968-26.969S76.969,35.129,76.969,50c0,0.492-0.016,0.981-0.043,1.468   C76.309,50.898,75.555,50.436,74.627,50.054z"/><path d="M42.456,28.973c-0.413-0.133-0.854,0.095-0.987,0.508l-1.013,3.156c-0.132,0.413,0.095,0.854,0.507,0.987   c0.413,0.133,0.855-0.095,0.988-0.508l1.013-3.156C43.096,29.547,42.869,29.106,42.456,28.973z"/><path d="M37.845,34.061c-0.258-0.35-0.749-0.423-1.098-0.166c-0.349,0.258-0.422,0.75-0.165,1.099l1.969,2.666   c0.258,0.349,0.75,0.423,1.098,0.166c0.349-0.259,0.423-0.75,0.165-1.099L37.845,34.061z"/><path d="M34.882,51.135l-3.244-0.683c-0.424-0.09-0.841,0.182-0.93,0.607c-0.089,0.424,0.182,0.84,0.606,0.93l3.244,0.684   c0.424,0.09,0.84-0.182,0.93-0.607C35.578,51.641,35.307,51.225,34.882,51.135z"/><path d="M37.392,67.508c-0.338-0.27-0.833-0.215-1.103,0.125s-0.214,0.832,0.125,1.104l2.592,2.066   c0.339,0.27,0.833,0.215,1.103-0.125c0.271-0.338,0.215-0.832-0.124-1.104L37.392,67.508z"/><path d="M34.034,38.011c0.359,0.243,0.847,0.148,1.09-0.211s0.148-0.848-0.212-1.09l-2.748-1.854   c-0.359-0.242-0.847-0.147-1.09,0.212c-0.242,0.359-0.147,0.848,0.212,1.09L34.034,38.011z"/><path d="M27.109,44.337c-0.201-0.385-0.675-0.534-1.06-0.333c-0.384,0.2-0.533,0.675-0.333,1.059l1.534,2.938   c0.201,0.385,0.675,0.533,1.059,0.333c0.385-0.201,0.533-0.675,0.333-1.06L27.109,44.337z"/><path d="M43.787,33.992c-0.434,0-0.785,0.351-0.785,0.785v3.314c0,0.434,0.351,0.785,0.785,0.785c0.433,0,0.785-0.352,0.785-0.785   v-3.314C44.572,34.342,44.22,33.992,43.787,33.992z"/><path d="M71.754,39.146l-2.871,1.66c-0.375,0.217-0.502,0.697-0.285,1.072c0.217,0.376,0.697,0.504,1.072,0.286l2.869-1.66   c0.375-0.217,0.504-0.697,0.287-1.072C72.607,39.056,72.129,38.929,71.754,39.146z"/><path d="M65.289,39.25c-0.432-0.044-0.816,0.271-0.859,0.703l-0.328,3.298c-0.045,0.432,0.271,0.816,0.703,0.859   s0.816-0.271,0.859-0.703l0.328-3.299C66.035,39.677,65.721,39.293,65.289,39.25z"/><path d="M61.248,36.886c-0.105-0.421-0.529-0.678-0.951-0.574c-0.42,0.104-0.678,0.529-0.574,0.95l0.793,3.218   c0.104,0.421,0.529,0.679,0.949,0.575c0.422-0.104,0.68-0.529,0.574-0.95L61.248,36.886z"/><path d="M69.336,44.101l-2.225,2.457c-0.291,0.321-0.268,0.817,0.055,1.108c0.32,0.291,0.818,0.267,1.109-0.055l2.225-2.457   c0.291-0.322,0.266-0.818-0.057-1.109C70.123,43.754,69.627,43.779,69.336,44.101z"/><path d="M50.282,27.984c-0.34-0.27-0.834-0.212-1.103,0.128l-2.058,2.599c-0.269,0.34-0.211,0.834,0.128,1.104   s0.834,0.211,1.103-0.129l2.058-2.599C50.679,28.747,50.622,28.253,50.282,27.984z"/><path d="M60.303,32.266c0.422-0.107,0.676-0.535,0.568-0.955l-0.818-3.212c-0.107-0.421-0.535-0.675-0.955-0.567   s-0.674,0.534-0.568,0.955l0.82,3.212C59.455,32.119,59.883,32.373,60.303,32.266z"/><path d="M65.355,32.752c-0.344-0.266-0.836-0.203-1.102,0.14l-2.029,2.622c-0.266,0.342-0.203,0.836,0.141,1.101   c0.344,0.267,0.836,0.203,1.102-0.14l2.029-2.621C65.762,33.51,65.699,33.018,65.355,32.752z"/><path d="M36.189,40.504c-0.34-0.27-0.834-0.213-1.103,0.127c-0.27,0.34-0.213,0.833,0.126,1.103l2.597,2.062   c0.338,0.27,0.833,0.213,1.103-0.127c0.271-0.34,0.213-0.834-0.126-1.104L36.189,40.504z"/><path d="M33.01,44.951l-1.273,3.061c-0.167,0.4,0.022,0.859,0.423,1.026c0.401,0.167,0.86-0.023,1.027-0.424l1.273-3.061   c0.167-0.399-0.023-0.859-0.423-1.026S33.177,44.55,33.01,44.951z"/><path d="M50.307,32.914c-0.118-0.417-0.551-0.66-0.969-0.543c-0.417,0.117-0.66,0.552-0.542,0.969l0.898,3.19   c0.118,0.418,0.551,0.661,0.968,0.543c0.418-0.117,0.661-0.551,0.543-0.969L50.307,32.914z"/><path d="M58.109,34.857l-2.883-1.638c-0.377-0.213-0.855-0.082-1.07,0.296c-0.213,0.377-0.082,0.855,0.297,1.07l2.881,1.637   c0.377,0.214,0.855,0.082,1.07-0.295S58.486,35.071,58.109,34.857z"/><path d="M32.71,62.484c-0.428,0.068-0.719,0.471-0.65,0.9l0.526,3.271c0.069,0.428,0.472,0.719,0.9,0.65   c0.428-0.068,0.72-0.471,0.65-0.9l-0.526-3.271C33.542,62.707,33.138,62.416,32.71,62.484z"/></g></svg>