<svg xmlns="http://www.w3.org/2000/svg" data-name="Layer 1" viewBox="0 0 90 112.5" x="0px" y="0px"><title>Chicago_Noun Project</title><path d="M45.76,31.73A15.2,15.2,0,1,1,61,16.53,15.22,15.22,0,0,1,45.76,31.73Zm0-28.4A13.2,13.2,0,1,0,59,16.53,13.21,13.21,0,0,0,45.76,3.33Z"/><path d="M54.37,46.76a15.37,15.37,0,0,1-10.5-4.13,1,1,0,1,1,1.36-1.46A13.43,13.43,0,1,0,59.5,18.93a1,1,0,0,1,.77-1.85,15.43,15.43,0,0,1-5.9,29.68Z"/><path d="M28.15,44.25a1,1,0,0,1-.51-.14A15.2,15.2,0,0,1,31.29,16.4a1,1,0,0,1,.54,1.93,13.2,13.2,0,0,0-3.17,24.06,1,1,0,0,1-.51,1.86Z"/><path d="M35.4,46.24a15.18,15.18,0,0,1-7.76-2.13,1,1,0,1,1,1-1.72,13.21,13.21,0,0,0,13.73-.15,1,1,0,0,1,1.06,1.7A15.16,15.16,0,0,1,35.4,46.24Z"/><path d="M42.92,44.09a1,1,0,0,1-.53-1.85A13.14,13.14,0,0,0,48.6,31c0-.26,0-.52,0-.78a1,1,0,1,1,2-.11c0,.29,0,.59,0,.89a15.12,15.12,0,0,1-7.15,12.89A1,1,0,0,1,42.92,44.09Z"/><path d="M45.05,88h0a3.15,3.15,0,0,1-2.94-2.17L27,43.86a1,1,0,1,1,1.88-.68L44,85.16a1.15,1.15,0,0,0,1.06.85h0a1.15,1.15,0,0,0,1.06-.85l15-41.69a1,1,0,1,1,1.88.68L48,85.84A3.15,3.15,0,0,1,45.05,88Z"/><path d="M45.55,63.33a3.24,3.24,0,0,1-3.24-3.24V50a1,1,0,0,1,2,0v10.1a1.24,1.24,0,0,0,2.48,0V52.38a1,1,0,1,1,2,0v7.71A3.24,3.24,0,0,1,45.55,63.33Z"/><path d="M43.31,60.35a1,1,0,0,1-1-1V49.25a1.24,1.24,0,1,0-2.48,0v2.48a1,1,0,0,1-2,0V49.25a3.24,3.24,0,1,1,6.48,0v10.1A1,1,0,0,1,43.31,60.35Z"/><path d="M54.24,55.06a3.12,3.12,0,0,1-3-3.24,1,1,0,0,1,2,0,1,1,0,1,0,1.95,0,1,1,0,1,1,2,0A3.12,3.12,0,0,1,54.24,55.06Z"/><path d="M47.79,55.41a1,1,0,0,1-1-1V51.93a3.24,3.24,0,1,1,6.48,0,1,1,0,0,1-2,0,1.24,1.24,0,1,0-2.48,0v2.48A1,1,0,0,1,47.79,55.41Z"/><path d="M56.22,52.89a1,1,0,0,1-1-1V50a3.24,3.24,0,0,1,5.69-2.11,1,1,0,1,1-1.51,1.31,1.24,1.24,0,0,0-2.18.81v1.86A1,1,0,0,1,56.22,52.89Z"/><path d="M36.6,56.86a3.24,3.24,0,0,1-3.24-3.24v-3a1,1,0,0,1,2,0v3a1.24,1.24,0,0,0,2.48,0V51.14a1,1,0,0,1,2,0v2.48A3.24,3.24,0,0,1,36.6,56.86Z"/><path d="M34.36,54.25a1,1,0,0,1-1-1v-3A1.24,1.24,0,0,0,31,49.65a1,1,0,0,1-1.74-1,3.24,3.24,0,0,1,6.06,1.59v3A1,1,0,0,1,34.36,54.25Z"/></svg>