<svg xmlns="http://www.w3.org/2000/svg" xmlns:xlink="http://www.w3.org/1999/xlink" version="1.0" x="0px" y="0px" viewBox="0 0 100 125" enable-background="new 0 0 100 100" xml:space="preserve"><ellipse fill="none" stroke="#000000" stroke-width="2" stroke-linecap="round" stroke-linejoin="round" stroke-miterlimit="10" cx="63.333" cy="60.134" rx="26.667" ry="12.8"/><path fill="none" stroke="#000000" stroke-width="2" stroke-linecap="round" stroke-linejoin="round" stroke-miterlimit="10" d="  M86.167,72.248c-0.862,1.161-0.194,3.549-1.703,4.515c-1.319,0.847-4.201-0.104-5.928,0.55c-1.548,0.59-2.357,2.991-4.172,3.396  c-1.676,0.373-3.951-1.325-5.798-1.134c-1.739,0.179-3.38,2.3-5.231,2.3c-1.848,0-3.489-2.121-5.228-2.3  c-1.849-0.191-4.129,1.507-5.807,1.134c-1.813-0.407-2.625-2.807-4.176-3.396c-1.726-0.656-4.607,0.291-5.929-0.553  c-1.506-0.967-0.837-3.355-1.697-4.514c-0.222-0.299-0.554-0.573-0.925-0.837c-1.845,1.74-2.907,3.704-2.907,5.792  C36.667,84.27,48.605,90,63.335,90C78.062,90,90,84.27,90,77.201c0-2.087-1.062-4.05-2.906-5.79  C86.722,71.675,86.39,71.95,86.167,72.248z"/><path fill="none" stroke="#000000" stroke-width="2" stroke-linecap="round" stroke-linejoin="round" stroke-miterlimit="10" d="  M87.093,65.925c-4.406,4.156-13.38,7.009-23.758,7.009c-10.383,0-19.355-2.853-23.761-7.009c-1.221,0.872-2.907,1.638-2.907,2.74  c0,1.438,2.88,2.302,3.832,3.581c0.86,1.158,0.191,3.547,1.697,4.514c1.321,0.844,4.203-0.104,5.929,0.553  c1.551,0.59,2.363,2.989,4.176,3.396c1.678,0.373,3.958-1.325,5.807-1.134c1.738,0.179,3.38,2.3,5.228,2.3  c1.852,0,3.492-2.121,5.231-2.3c1.847-0.191,4.122,1.507,5.798,1.134c1.814-0.405,2.624-2.807,4.172-3.396  c1.727-0.654,4.608,0.297,5.928-0.55c1.509-0.966,0.841-3.354,1.703-4.515C87.122,70.97,90,70.105,90,68.665  C90,67.563,88.312,66.798,87.093,65.925z"/><ellipse transform="matrix(0.9239 -0.3827 0.3827 0.9239 -7.131 15.3919)" fill="none" stroke="#000000" stroke-width="2" stroke-linecap="round" stroke-linejoin="round" stroke-miterlimit="10" cx="35.123" cy="25.62" rx="26.666" ry="12.799"/><path fill="none" stroke="#000000" stroke-width="2" stroke-linecap="round" stroke-linejoin="round" stroke-miterlimit="10" d="  M59.289,21.88c-2.48,5.525-9.676,11.596-19.267,15.565c-9.59,3.973-18.972,4.771-24.633,2.618c-0.794,1.274-2.06,2.627-1.636,3.646  c0.549,1.328,3.541,1.022,4.909,1.839c1.24,0.741,1.536,3.206,3.297,3.521c1.543,0.275,3.843-1.702,5.688-1.757  c1.661-0.049,3.328,1.856,5.159,1.536c1.689-0.296,3.147-2.735,4.928-3.266c1.677-0.5,4,0.832,5.709,0.124  c1.712-0.71,2.418-3.297,3.953-4.128c1.635-0.882,4.388-0.186,5.793-1.171c1.52-1.068,1.349-3.597,2.553-4.736  c1.344-1.263,4.372-1.488,5.266-2.774c1.023-1.47-0.506-3.422-0.153-4.823c0.392-1.544,2.72-3.445,2.169-4.775  C62.604,22.279,60.75,22.219,59.289,21.88z"/><path fill="none" stroke="#000000" stroke-width="2" stroke-linecap="round" stroke-linejoin="round" stroke-miterlimit="10" d="  M56.512,47.772c7.607-5.359,11.743-11.85,9.781-16.59c-0.801-1.926-2.534-3.332-4.904-4.237c-0.241,0.389-0.442,0.771-0.534,1.13  c-0.353,1.401,1.177,3.354,0.153,4.823c-0.894,1.286-3.922,1.512-5.266,2.774c-1.204,1.139-1.033,3.667-2.553,4.736  c-1.405,0.985-4.159,0.289-5.793,1.171c-1.535,0.831-2.241,3.418-3.953,4.128c-1.709,0.708-4.032-0.624-5.709-0.124  c-1.78,0.53-3.238,2.97-4.928,3.266c-1.831,0.32-3.498-1.585-5.159-1.536c-1.845,0.055-4.145,2.032-5.688,1.757  c-1.761-0.315-2.057-2.78-3.297-3.521c-0.319-0.189-0.73-0.314-1.173-0.416c-1.039,2.312-1.27,4.533-0.471,6.46  c2.14,5.169,10.878,6.685,21.174,4.305C41.098,51.924,47.956,48.859,56.512,47.772z"/></svg>