<svg xmlns="http://www.w3.org/2000/svg" xmlns:xlink="http://www.w3.org/1999/xlink" version="1.1" x="0px" y="0px" viewBox="0 0 100 125" enable-background="new 0 0 100 100" xml:space="preserve"><path d="M70.004,24.538c-0.893,0.002-1.804,0.107-2.719,0.315c-4.205-6.187-11.039-9.847-18.536-9.847  c-8.19,0.017-15.632,4.479-19.594,11.696c-8.433,1.834-14.466,9.078-14.448,17.491c0.012,6.213,3.326,11.689,8.336,14.894  l5.287,24.723c0.15,0.69,0.761,1.183,1.467,1.183h20.225l0,0h20.227c0.705,0,1.316-0.492,1.466-1.183l5.075-23.722  c1.541-0.928,2.967-2.161,4.203-3.712c2.811-3.525,4.354-8.189,4.344-13.133C85.316,32.93,78.449,24.538,70.004,24.538z   M24.703,60.028c0.004,0.001,0.008,0.003,0.01,0.004C24.711,60.031,24.707,60.029,24.703,60.028z M31.008,81.993l-4.535-21.189l0,0  c1.012,0.386,2.061,0.699,3.15,0.91l3.359,20.279H31.008z M36.023,81.993l-3.306-19.955c0.19,0.006,0.376,0.028,0.567,0.028  c0.915-0.002,1.852-0.099,2.795-0.243l2.159,20.17H36.023z M41.257,81.993L39.218,62.95c1.004,0.48,2.056,0.89,3.15,1.224  l1.01,17.819H41.257z M46.383,81.993l-0.969-17.105c1.016,0.171,2.051,0.282,3.102,0.328l0.006,16.777H46.383z M43.858,64.574  c0.007,0.002,0.013,0.004,0.021,0.005C43.871,64.578,43.865,64.576,43.858,64.574z M51.521,81.993l-0.006-16.813  c1.063-0.076,2.102-0.228,3.122-0.43L53.66,81.993H51.521z M58.785,81.993h-2.119l1.021-18.042l0,0  c1.105-0.376,2.164-0.83,3.165-1.356c-0.001,0-0.001,0.001-0.002,0.001L58.785,81.993z M61.803,81.993l2.286-21.474  c1.062,0.554,2.16,0.938,3.286,1.184l-3.432,20.29H61.803z M70.076,62.01c1.139-0.002,2.254-0.169,3.338-0.464l-4.377,20.447h-2.052  l3.384-20.002C70.271,61.994,70.175,62.01,70.076,62.01 M49.658,62.255c-4.311,0-8.414-1.205-11.555-3.392  c-0.254-0.177-0.554-0.27-0.857-0.27c-0.113,0-0.227,0.013-0.338,0.039c-1.232,0.285-2.453,0.431-3.664,0.434  c-8.551,0-15.521-6.674-15.537-14.878c-0.014-7.194,5.328-13.366,12.703-14.676c0.463-0.082,0.861-0.377,1.074-0.797  c3.35-6.591,9.968-10.694,17.309-10.709c6.775,0,12.962,3.501,16.547,9.364c0.36,0.589,1.074,0.854,1.733,0.647  c1.013-0.321,1.974-0.479,2.954-0.48c6.771,0,12.292,7.048,12.309,15.712c0.008,4.264-1.302,8.262-3.689,11.257  c-2.311,2.897-5.355,4.496-8.598,4.503c-1.865,0-3.675-0.542-5.378-1.609c-0.575-0.362-1.318-0.292-1.815,0.169  c-3.206,2.968-8,4.675-13.152,4.686"/></svg>