<svg xmlns="http://www.w3.org/2000/svg" xmlns:xlink="http://www.w3.org/1999/xlink" version="1.1" x="0px" y="0px" viewBox="0 0 100 125" enable-background="new 0 0 100 100" xml:space="preserve"><g><path fill="#000000" d="M71.112,41.76c-0.44-1.891-1.093-3.887-3.137-4.331c0.108-0.809,0.183-1.623,0.183-2.441   c0-10.013-8.145-18.159-18.156-18.159c-10.013,0-18.158,8.146-18.158,18.159c0,0.819,0.074,1.633,0.182,2.441   c-2.045,0.443-2.697,2.44-3.138,4.331c-0.302,1.297-0.555,2.768,0.268,3.804c0.539,0.679,1.366,0.95,2.198,1.057l1.543,12.296   c0.271,1.759,1.774,3.208,3.256,4.088L38.627,78.1c0.457,2.796,3.133,5.071,5.967,5.071h11.074c2.84,0,5.495-2.284,5.918-5.091   l2.272-15.083c1.454-0.875,2.929-2.32,3.206-4.11l1.58-12.266c0.833-0.106,1.661-0.376,2.201-1.057   C71.668,44.529,71.414,43.058,71.112,41.76z M50.002,19.28c8.661,0,15.707,7.047,15.707,15.708c0,0.787-0.075,1.571-0.191,2.345   H34.483c-0.115-0.773-0.19-1.557-0.19-2.345C34.293,26.327,41.34,19.28,50.002,19.28z M59.164,77.714   c-0.246,1.629-1.847,3.006-3.496,3.006H44.594c-1.657,0-3.282-1.381-3.549-3.016L38.618,62.9h22.777L59.164,77.714z M64.639,58.543   c-0.131,0.846-1.117,1.894-2.404,2.557H37.763c-1.312-0.673-2.316-1.72-2.439-2.522l-1.538-12.262h32.428L64.639,58.543z    M69.123,44.196c-0.023,0.03-0.27,0.291-1.611,0.291c-0.065,0-0.123,0.026-0.185,0.038c-0.014-0.001-0.024-0.008-0.038-0.008   H32.777c-0.025,0-0.046,0.012-0.071,0.014c-0.072-0.015-0.141-0.044-0.218-0.044c-1.341,0-1.586-0.261-1.61-0.291   c-0.086-0.109-0.181-0.505,0.152-1.937c0.635-2.726,1.212-2.726,1.88-2.726h34.18c0.641,0,1.245,0,1.88,2.726   C69.304,43.692,69.209,44.088,69.123,44.196z"/></g></svg>