<svg xmlns="http://www.w3.org/2000/svg" xmlns:xlink="http://www.w3.org/1999/xlink" version="1.1" x="0px" y="0px" viewBox="0 0 100 125" style="enable-background:new 0 0 100 100;" xml:space="preserve"><path d="M30,74c10.4,0,18.8-8.4,18.8-18.8S40.3,36.4,30,36.4s-18.8,8.4-18.8,18.8S19.6,74,30,74z M30,38.4c9.3,0,16.8,7.5,16.8,16.8  C46.8,64.4,39.2,72,30,72s-16.8-7.5-16.8-16.8C13.2,45.9,20.7,38.4,30,38.4z"/><path d="M19.9,63.1c0.4,0.3,0.8,0.6,1.2,1c0.3,0.3,0.6,0.7,1,1.2c0.7,0.9,1.5,2,2.8,2.5c1.2,0.5,2.4,0.3,3.6,0.2  c1.1-0.1,2-0.1,3.1,0c0.6,0.1,1.2,0.1,1.8,0.1c0.6,0,1.3-0.1,1.9-0.3c1.2-0.5,2-1.6,2.8-2.5c0.3-0.4,0.6-0.8,1-1.2  c0.3-0.3,0.7-0.6,1.2-1c0.9-0.7,2-1.5,2.5-2.8c0.5-1.2,0.3-2.4,0.2-3.6c-0.1-0.6-0.1-1.1-0.1-1.6s0.1-1,0.1-1.6  c0.1-1.2,0.3-2.5-0.2-3.6c-0.5-1.2-1.6-2-2.5-2.8c-0.4-0.3-0.8-0.6-1.2-1c-0.3-0.3-0.6-0.7-1-1.2c-0.7-0.9-1.5-2-2.8-2.5  c-1.2-0.5-2.4-0.3-3.6-0.2c-1.1,0.1-2,0.1-3.1,0c-1.2-0.1-2.5-0.3-3.6,0.2c-1.2,0.5-2,1.6-2.8,2.5c-0.3,0.4-0.6,0.8-1,1.2  c-0.3,0.3-0.7,0.6-1.2,1c-0.9,0.7-2,1.5-2.5,2.8c-0.5,1.2-0.3,2.4-0.2,3.6c0.1,0.6,0.1,1.1,0.1,1.6s-0.1,1-0.1,1.6  c-0.1,1.2-0.3,2.5,0.2,3.6C17.9,61.6,18.9,62.4,19.9,63.1z M19.2,53.4c-0.1-1-0.2-1.9,0.1-2.6c0.3-0.7,1.1-1.3,1.9-1.9  c0.5-0.4,0.9-0.7,1.3-1.1c0.4-0.4,0.8-0.9,1.1-1.3c0.6-0.8,1.2-1.6,1.9-1.9c0.7-0.3,1.6-0.2,2.6-0.1c1.2,0.1,2.4,0.1,3.6,0  c1-0.1,1.9-0.2,2.6,0.1c0.7,0.3,1.3,1.1,1.9,1.9c0.4,0.5,0.7,0.9,1.1,1.3s0.9,0.8,1.3,1.1c0.8,0.6,1.6,1.2,1.9,1.9  c0.3,0.7,0.2,1.6,0.1,2.6c-0.1,0.6-0.1,1.2-0.1,1.8s0.1,1.2,0.1,1.8c0.1,1,0.2,1.9-0.1,2.6c-0.3,0.7-1.1,1.3-1.9,1.9  c-0.5,0.4-0.9,0.7-1.3,1.1c-0.4,0.4-0.8,0.9-1.1,1.3c-0.6,0.8-1.2,1.6-1.9,1.9c-0.7,0.3-1.6,0.2-2.6,0.1c-0.6-0.1-1.2-0.1-1.8-0.1  s-1.2,0.1-1.8,0.1c-1,0.1-1.9,0.2-2.6-0.1c-0.7-0.3-1.3-1.1-1.9-1.9c-0.4-0.5-0.7-0.9-1.1-1.3s-0.9-0.8-1.3-1.1  c-0.8-0.6-1.6-1.2-1.9-1.9C18.9,58.9,19,58,19.2,57c0.1-0.6,0.1-1.2,0.1-1.8S19.2,53.9,19.2,53.4z"/><path d="M58.2,54c-4.2,2.8-7,7.1-7.9,12s0.1,9.9,2.9,14.1c2.8,4.2,7.1,7,12,7.9c1.2,0.2,2.4,0.3,3.6,0.3c3.7,0,7.4-1.1,10.5-3.3  c4.2-2.8,7-7.1,7.9-12s-0.1-9.9-2.9-14.1c-2.8-4.2-7.1-7-12-7.9C67.4,50.2,62.4,51.2,58.2,54z M82.7,60.2c2.5,3.7,3.4,8.2,2.6,12.6  c-0.8,4.4-3.4,8.2-7.1,10.7c-3.7,2.5-8.2,3.4-12.6,2.6c-4.4-0.8-8.2-3.4-10.7-7.1c-2.5-3.7-3.4-8.2-2.6-12.6  c0.8-4.4,3.4-8.2,7.1-10.7c2.8-1.9,6.1-2.9,9.4-2.9c1.1,0,2.1,0.1,3.2,0.3C76.4,53.9,80.2,56.4,82.7,60.2z"/><path d="M69.7,56.8c-1.1-0.4-2.4-0.8-3.7-0.5c-1.3,0.3-2.2,1.1-3.1,1.9c-0.4,0.4-0.8,0.7-1.2,1s-0.9,0.5-1.4,0.8  c-1.1,0.6-2.2,1.1-2.9,2.2c-0.7,1.1-0.8,2.4-0.9,3.6c0,0.5-0.1,1-0.2,1.5c-0.1,0.5-0.2,0.9-0.4,1.4c-0.4,1.1-0.8,2.4-0.5,3.7  c0.3,1.3,1.1,2.2,1.9,3.1c0.4,0.4,0.7,0.8,1,1.2c0.3,0.4,0.5,0.9,0.8,1.4c0.6,1.1,1.1,2.2,2.2,2.9c1.1,0.7,2.4,0.8,3.6,0.9  c0.5,0,1,0.1,1.5,0.2c0.5,0.1,0.9,0.2,1.4,0.4c0.9,0.3,1.8,0.6,2.8,0.6c0.3,0,0.6,0,0.9-0.1c1.3-0.3,2.2-1.1,3.1-1.9  c0.4-0.4,0.8-0.7,1.2-1c0.4-0.3,0.9-0.5,1.4-0.8c1.1-0.6,2.2-1.1,2.9-2.2c0.7-1.1,0.8-2.4,0.9-3.6c0-0.5,0.1-1,0.2-1.5  c0.1-0.5,0.2-0.9,0.4-1.4c0.4-1.1,0.8-2.4,0.5-3.7c-0.3-1.3-1.1-2.2-1.9-3.1c-0.4-0.4-0.7-0.8-1-1.2s-0.5-0.9-0.8-1.4  c-0.6-1.1-1.1-2.2-2.2-2.9c-1.1-0.7-2.4-0.8-3.6-0.9c-0.5,0-1-0.1-1.5-0.2C70.7,57.1,70.2,56.9,69.7,56.8z M75.2,59.9  c0.6,0.4,1.1,1.3,1.5,2.1c0.3,0.5,0.5,1.1,0.9,1.6s0.7,1,1.1,1.4c0.7,0.8,1.3,1.5,1.4,2.2c0.2,0.8-0.1,1.7-0.4,2.7  c-0.2,0.5-0.4,1.1-0.5,1.7s-0.1,1.2-0.2,1.7c-0.1,1-0.1,2-0.6,2.6c-0.4,0.6-1.3,1.1-2.1,1.5c-0.5,0.3-1.1,0.6-1.6,0.9  c-0.5,0.3-1,0.7-1.4,1.1c-0.8,0.7-1.5,1.3-2.2,1.4c-0.8,0.2-1.7-0.1-2.7-0.4c-0.5-0.2-1.1-0.4-1.7-0.5s-1.2-0.1-1.7-0.2  c-1-0.1-2-0.1-2.6-0.6c-0.6-0.4-1.1-1.3-1.5-2.1c-0.3-0.5-0.6-1.1-0.9-1.6c-0.3-0.5-0.7-1-1.1-1.4c-0.7-0.8-1.3-1.5-1.4-2.2  c-0.2-0.8,0.1-1.7,0.4-2.7c0.2-0.5,0.4-1.1,0.5-1.7s0.1-1.2,0.2-1.7c0.1-1,0.1-2,0.6-2.6c0.4-0.6,1.3-1.1,2.1-1.5  c0.5-0.3,1.1-0.6,1.6-0.9c0.5-0.3,1-0.7,1.4-1.1c0.8-0.7,1.5-1.3,2.2-1.4c0.8-0.2,1.7,0.1,2.7,0.4c0.5,0.2,1.1,0.4,1.7,0.5  c0.6,0.1,1.2,0.1,1.7,0.2C73.6,59.4,74.5,59.5,75.2,59.9z"/><path d="M73.4,71.4c-0.5-0.1-1.1,0.3-1.1,0.8c-0.1,0.5,0.3,1.1,0.8,1.1l1.3,0.2c0,0,0.1,0,0.1,0c0.5,0,0.9-0.4,1-0.9  c0.1-0.5-0.3-1.1-0.8-1.1L73.4,71.4z"/><path d="M64.6,66.4l-1.3-0.2c-0.5-0.1-1.1,0.3-1.1,0.8c-0.1,0.5,0.3,1.1,0.8,1.1l1.3,0.2c0,0,0.1,0,0.1,0c0.5,0,0.9-0.4,1-0.9  C65.5,67,65.1,66.5,64.6,66.4z"/><path d="M63.2,71.9c-0.4-0.4-1-0.5-1.4-0.1c-0.4,0.4-0.5,1-0.1,1.4l0.9,1c0.2,0.2,0.5,0.3,0.8,0.3c0.2,0,0.5-0.1,0.7-0.2  c0.4-0.4,0.5-1,0.1-1.4L63.2,71.9z"/><path d="M25.6,59.9c-0.4-0.4-1-0.5-1.4-0.1c-0.4,0.4-0.5,1-0.1,1.4l0.9,1c0.2,0.2,0.5,0.3,0.8,0.3c0.2,0,0.5-0.1,0.7-0.2  c0.4-0.4,0.5-1,0.1-1.4L25.6,59.9z"/><path d="M70.1,71l0.2-1.3c0.1-0.5-0.3-1-0.9-1.1c-0.6-0.1-1,0.3-1.1,0.9l-0.2,1.3c-0.1,0.5,0.3,1,0.9,1.1c0,0,0.1,0,0.1,0  C69.6,71.8,70.1,71.5,70.1,71z"/><path d="M30.7,64.5c0.1,0,0.2,0,0.4-0.1l1.2-0.5c0.5-0.2,0.8-0.8,0.6-1.3c-0.2-0.5-0.8-0.8-1.3-0.6l-1.2,0.5  c-0.5,0.2-0.8,0.8-0.6,1.3C29.9,64.2,30.3,64.5,30.7,64.5z"/><path d="M69.2,77.4c0.2,0.4,0.5,0.6,0.9,0.6c0.1,0,0.2,0,0.4-0.1l1.2-0.5c0.5-0.2,0.8-0.8,0.6-1.3c-0.2-0.5-0.8-0.8-1.3-0.6  l-1.2,0.5C69.2,76.4,69,76.9,69.2,77.4z"/><path d="M73.1,67.4c0.1,0,0.2,0,0.4-0.1l1.2-0.5c0.5-0.2,0.8-0.8,0.6-1.3C75.1,65,74.5,64.8,74,65l-1.2,0.5  c-0.5,0.2-0.8,0.8-0.6,1.3C72.3,67.1,72.7,67.4,73.1,67.4z"/><path d="M34.8,57.9c-0.1,0.5,0.3,1.1,0.8,1.1l1.3,0.2c0,0,0.1,0,0.1,0c0.5,0,0.9-0.4,1-0.9c0.1-0.5-0.3-1.1-0.8-1.1L35.9,57  C35.4,57,34.9,57.3,34.8,57.9z"/><path d="M69,63.3c0.5,0,0.9-0.4,1-0.9c0.1-0.5-0.3-1.1-0.8-1.1l-1.3-0.2c-0.5-0.1-1.1,0.3-1.1,0.8c-0.1,0.5,0.3,1.1,0.8,1.1l1.3,0.2  C68.9,63.3,69,63.3,69,63.3z"/><path d="M25.7,49.6l1.3,0.2c0,0,0.1,0,0.1,0c0.5,0,0.9-0.4,1-0.9c0.1-0.5-0.3-1.1-0.8-1.1L26,47.6c-0.5-0.1-1.1,0.3-1.1,0.8  C24.8,49,25.1,49.5,25.7,49.6z"/><path d="M34.3,51.4c0.2,0.2,0.4,0.3,0.7,0.3c0.3,0,0.5-0.1,0.7-0.3c0.4-0.4,0.3-1-0.1-1.4l-1-0.9c-0.4-0.4-1-0.3-1.4,0.1  c-0.4,0.4-0.3,1,0.1,1.4L34.3,51.4z"/><path d="M30.7,57.1c0.3,0,0.5-0.1,0.7-0.3l0.9-1c0.4-0.4,0.3-1-0.1-1.4c-0.4-0.4-1-0.3-1.4,0.1l-0.9,1c-0.4,0.4-0.3,1,0.1,1.4  C30.2,57,30.5,57.1,30.7,57.1z"/><path d="M23.2,56c0.2,0.2,0.5,0.3,0.8,0.3c0.2,0,0.5-0.1,0.7-0.2c0.4-0.4,0.5-1,0.1-1.4l-0.9-1c-0.4-0.4-1-0.5-1.4-0.1  c-0.4,0.4-0.5,1-0.1,1.4L23.2,56z"/><path d="M61.7,48.2c10.4,0,18.8-8.4,18.8-18.8s-8.4-18.8-18.8-18.8S42.9,19,42.9,29.4S51.3,48.2,61.7,48.2z M61.7,12.6  c9.3,0,16.8,7.5,16.8,16.8c0,9.3-7.5,16.8-16.8,16.8s-16.8-7.5-16.8-16.8C44.9,20.1,52.4,12.6,61.7,12.6z"/><path d="M51.6,37.4c0.4,0.3,0.8,0.6,1.2,1c0.3,0.3,0.6,0.7,1,1.2c0.7,0.9,1.5,2,2.8,2.5c1.2,0.5,2.4,0.3,3.6,0.2  c1.1-0.1,2-0.1,3.1,0c0.6,0.1,1.2,0.1,1.8,0.1c0.6,0,1.3-0.1,1.9-0.3c1.2-0.5,2-1.6,2.8-2.5c0.3-0.4,0.6-0.8,1-1.2  c0.3-0.3,0.7-0.6,1.2-1c0.9-0.7,2-1.5,2.5-2.8c0.5-1.2,0.3-2.4,0.2-3.6c-0.1-0.6-0.1-1.1-0.1-1.6s0.1-1,0.1-1.6  c0.1-1.2,0.3-2.5-0.2-3.6c-0.5-1.2-1.6-2-2.5-2.8c-0.4-0.3-0.8-0.6-1.2-1c-0.3-0.3-0.6-0.7-1-1.2c-0.7-0.9-1.5-2-2.8-2.5  c-1.2-0.5-2.4-0.3-3.6-0.2c-1.1,0.1-2,0.1-3.1,0c-1.2-0.1-2.5-0.3-3.6,0.2c-1.2,0.5-2,1.6-2.8,2.5c-0.3,0.4-0.6,0.8-1,1.2  c-0.3,0.3-0.7,0.6-1.2,1c-0.9,0.7-2,1.5-2.5,2.8c-0.5,1.2-0.3,2.4-0.2,3.6c0.1,0.6,0.1,1.1,0.1,1.6s-0.1,1-0.1,1.6  c-0.1,1.2-0.3,2.5,0.2,3.6C49.6,35.9,50.7,36.7,51.6,37.4z M50.9,27.6c-0.1-1-0.2-1.9,0.1-2.6c0.3-0.7,1.1-1.3,1.9-1.9  c0.5-0.4,0.9-0.7,1.3-1.1c0.4-0.4,0.8-0.9,1.1-1.3c0.6-0.8,1.2-1.6,1.9-1.9c0.7-0.3,1.6-0.2,2.6-0.1c1.2,0.1,2.4,0.1,3.6,0  c1-0.1,1.9-0.2,2.6,0.1c0.7,0.3,1.3,1.1,1.9,1.9c0.4,0.5,0.7,0.9,1.1,1.3s0.9,0.8,1.3,1.1c0.8,0.6,1.6,1.2,1.9,1.9  c0.3,0.7,0.2,1.6,0.1,2.6c-0.1,0.6-0.1,1.2-0.1,1.8s0.1,1.2,0.1,1.8c0.1,1,0.2,1.9-0.1,2.6c-0.3,0.7-1.1,1.3-1.9,1.9  c-0.5,0.4-0.9,0.7-1.3,1.1c-0.4,0.4-0.8,0.9-1.1,1.3c-0.6,0.8-1.2,1.6-1.9,1.9c-0.7,0.3-1.6,0.2-2.6,0.1c-0.6-0.1-1.2-0.1-1.8-0.1  s-1.2,0.1-1.8,0.1c-1,0.1-1.9,0.2-2.6-0.1c-0.7-0.3-1.3-1.1-1.9-1.9c-0.4-0.5-0.7-0.9-1.1-1.3s-0.9-0.8-1.3-1.1  c-0.8-0.6-1.6-1.2-1.9-1.9c-0.3-0.7-0.2-1.6-0.1-2.6c0.1-0.6,0.1-1.2,0.1-1.8S51,28.2,50.9,27.6z"/><path d="M57.4,34.2c-0.4-0.4-1-0.5-1.4-0.1c-0.4,0.4-0.5,1-0.1,1.4l0.9,1c0.2,0.2,0.5,0.3,0.8,0.3c0.2,0,0.5-0.1,0.7-0.2  c0.4-0.4,0.5-1,0.1-1.4L57.4,34.2z"/><path d="M62.5,38.7c0.1,0,0.2,0,0.4-0.1l1.2-0.5c0.5-0.2,0.8-0.8,0.6-1.3c-0.2-0.5-0.8-0.8-1.3-0.6l-1.2,0.5  c-0.5,0.2-0.8,0.8-0.6,1.3C61.7,38.5,62.1,38.7,62.5,38.7z"/><path d="M66.6,32.1c-0.1,0.5,0.3,1.1,0.8,1.1l1.3,0.2c0,0,0.1,0,0.1,0c0.5,0,0.9-0.4,1-0.9c0.1-0.5-0.3-1.1-0.8-1.1l-1.3-0.2  C67.1,31.2,66.6,31.6,66.6,32.1z"/><path d="M57.4,23.9l1.3,0.2c0,0,0.1,0,0.1,0c0.5,0,0.9-0.4,1-0.9c0.1-0.5-0.3-1.1-0.8-1.1l-1.3-0.2c-0.5-0.1-1.1,0.3-1.1,0.8  C56.5,23.3,56.9,23.8,57.4,23.9z"/><path d="M66,25.7c0.2,0.2,0.4,0.3,0.7,0.3c0.3,0,0.5-0.1,0.7-0.3c0.4-0.4,0.3-1-0.1-1.4l-1-0.9c-0.4-0.4-1-0.3-1.4,0.1  c-0.4,0.4-0.3,1,0.1,1.4L66,25.7z"/><path d="M62.5,31.3c0.3,0,0.5-0.1,0.7-0.3l0.9-1c0.4-0.4,0.3-1-0.1-1.4c-0.4-0.4-1-0.3-1.4,0.1l-0.9,1c-0.4,0.4-0.3,1,0.1,1.4  C62,31.2,62.2,31.3,62.5,31.3z"/><path d="M55,30.3c0.2,0.2,0.5,0.3,0.8,0.3c0.2,0,0.5-0.1,0.7-0.2c0.4-0.4,0.5-1,0.1-1.4l-0.9-1c-0.4-0.4-1-0.5-1.4-0.1  c-0.4,0.4-0.5,1-0.1,1.4L55,30.3z"/></svg>