<svg xmlns="http://www.w3.org/2000/svg" xmlns:xlink="http://www.w3.org/1999/xlink" version="1.1" x="0px" y="0px" viewBox="0 0 100 125" style="enable-background:new 0 0 100 100;" xml:space="preserve"><path style="" d="M15.544,52.277c-0.702-0.848-0.562-1.601,0.287-2.256  c2.582-1.994,4.762-4.468,7.838-5.887c1.838-0.849,3.272-2.533,5.063-3.528c5.643-3.135,11.743-4.89,18.121-5.871  c5.27-0.812,10.476-0.244,15.697,0.225c1.393,0.126,2.569,0.168,4.043-0.311c1.826-0.591,4.098,0.056,6.151,0.339  c6.462,0.894,10.573,5.036,13.824,10.266c1.072,1.723,1.44,3.641,1.052,5.668c-0.483,2.517-3.696,3.494-6.392,1.931  c-1.335-0.776-2.651-1.584-3.979-2.372c-3.968-2.353-7.224-2.066-10.77,0.905c-0.302,0.254-0.761,0.337-1.159,0.453  c-7.556,2.203-15.071,4.565-22.688,6.528c-3.726,0.961-7.642,1.185-11.475,1.726c-2.751,0.388-4.956,1.536-5.946,4.311  c-0.224,0.629-0.294,1.337-0.305,2.012c-0.042,2.734-1.648,3.95-4.242,3.048c-3.34-1.162-6.123-3.142-7.62-6.409  C11.352,59.351,12.336,55.464,15.544,52.277z M17.428,52.427c-0.529,0.791-0.819,1.343-1.217,1.799  c-2.593,2.971-3.203,6.509-1.011,9.695c1.176,1.71,3.136,2.972,4.941,4.124c1.592,1.018,3.038,0.052,2.945-1.832  c-0.11-2.247,0.758-3.988,2.473-5.472c-0.992-1.683-1.961-3.323-3.127-5.298c2.625,0.642,3.247,2.654,4.251,4.215  c4.245-1.52,8.717-1.813,13.229-1.883c-1.268-3.703-3.584-6.416-6.398-8.663c-1.604-1.279-3.455-2.305-5.312-3.2  c-1.771-0.855-3.64-0.952-5.356,0.62c2.311,1.39,4.48,2.773,5.78,5.14c-0.675-0.09-1.217-0.355-1.68-0.724  c-1.247-0.994-2.403-2.114-3.718-3.01c-0.49-0.334-1.519-0.479-1.951-0.189c-1.476,0.987-2.797,2.208-4.316,3.454  c2.089,0.827,4.068,1.495,5.263,3.273c-0.083,0.149-0.166,0.299-0.25,0.449C20.409,54.064,18.844,53.205,17.428,52.427z   M28.965,42.178c6.608,0.703,9.909,2.622,13.618,5.592c2.362,1.892,4.662,3.863,6.997,5.791c0.895,0.74,1.812,0.633,2.579-0.141  c0.591-0.596,1.34-1.281,1.479-2.028c0.429-2.279,0.553-4.612,0.877-6.914c0.414-2.955,0.205-6.149,3.405-8.536  C47.451,35.161,38.154,37.567,28.965,42.178z M65.931,49.536c2.568-2.173,7.396-2.616,10.107-1.065  c1.759,1.006,3.497,2.043,5.267,3.028c1.161,0.647,2.568,1.204,3.544,0.099c0.71-0.803,1.245-2.223,1.085-3.244  c-0.533-3.415-2.528-6.024-5.409-8.287c1.012,3.812,0.036,7.771-2.03,8.091c0.104-0.506,0.232-0.947,0.284-1.398  c0.182-1.582,0.571-3.19,0.434-4.749c-0.123-1.395-0.437-3.443-1.367-3.974c-3.16-1.803-6.77-2.231-10.696-2.039  c0.842,0.791,1.5,1.32,2.045,1.947c0.526,0.605,0.936,1.312,1.396,1.973c-0.166,0.151-0.331,0.302-0.495,0.452  c-0.555-0.481-1.202-0.89-1.646-1.46c-1.502-1.936-3.413-2.747-5.962-2.379C65.046,40.426,65.477,44.89,65.931,49.536z   M55.647,52.711c2.771-0.75,5.777-1.564,8.751-2.369c-0.129-0.726-0.258-1.337-0.348-1.955c-0.313-2.156-0.478-4.346-0.955-6.464  c-0.483-2.138-1.033-4.34-2.796-5.555c-3.218,2.015-3.792,5.086-3.988,8.356C56.15,47.399,55.871,50.067,55.647,52.711z   M41.487,56.999c2.429-0.723,4.756-1.415,7.066-2.104c-2.477-2.196-4.822-4.191-7.067-6.293c-2.686-2.514-5.852-4.126-9.402-4.814  c-1.776-0.345-3.675-0.061-5.52-0.061C33.148,45.909,38.781,51.053,41.487,56.999z" fill-rule="evenodd" clip-rule="evenodd"/><path style="" d="M28.954,52.908c1.926,0.511,3.243,2.539,3.189,4.722  C30.901,57.81,30.901,57.81,28.954,52.908z" fill-rule="evenodd" clip-rule="evenodd"/><path style="" d="M69.785,41.33c0.574,0.44,1.39,0.766,1.665,1.346  c0.464,0.979,0.668,2.11,0.812,3.201c0.055,0.408-0.362,0.88-0.563,1.322c-0.368-0.379-0.933-0.7-1.065-1.149  c-0.415-1.39-0.665-2.829-0.979-4.249C69.698,41.644,69.742,41.488,69.785,41.33z" fill-rule="evenodd" clip-rule="evenodd"/></svg>